<?xml version="1.0" encoding="UTF-8"?>
<!-- Generator: visioncortex VTracer 0.6.3 -->
<svg version="1.1" xmlns="http://www.w3.org/2000/svg" width="1280" height="1190">
<path d="M0 0 C422.4 0 844.8 0 1280 0 C1280 392.7 1280 785.4 1280 1190 C857.6 1190 435.2 1190 0 1190 C0 797.3 0 404.6 0 0 Z " fill="#D8D9DA"  transform="translate(0,0)"/>
<path d="M0 0 C1.02 -0.01 2.05 -0.01 3.1 -0.02 C4.23 -0.01 5.36 -0.01 6.52 -0 C7.73 -0.01 8.93 -0.01 10.16 -0.01 C13.52 -0.02 16.87 -0.02 20.22 -0.01 C23.87 -0.01 27.51 -0.01 31.15 -0.02 C37.54 -0.03 43.93 -0.03 50.31 -0.03 C59.81 -0.02 69.32 -0.03 78.82 -0.04 C96.77 -0.05 114.73 -0.05 132.69 -0.05 C146.56 -0.05 160.43 -0.05 174.3 -0.05 C176.29 -0.06 178.28 -0.06 180.27 -0.06 C183.27 -0.06 186.27 -0.06 189.27 -0.06 C217.18 -0.07 245.09 -0.07 273 -0.07 C274.58 -0.07 274.58 -0.07 276.19 -0.07 C281.53 -0.07 286.86 -0.07 292.2 -0.06 C293.26 -0.06 294.32 -0.06 295.41 -0.06 C297.56 -0.06 299.7 -0.06 301.84 -0.06 C335.18 -0.06 368.51 -0.07 401.84 -0.08 C439.27 -0.11 476.71 -0.12 514.15 -0.11 C518.14 -0.11 522.13 -0.11 526.13 -0.11 C527.6 -0.11 527.6 -0.11 529.11 -0.11 C543.94 -0.11 558.78 -0.12 573.62 -0.13 C590.51 -0.14 607.39 -0.14 624.28 -0.13 C633.72 -0.12 643.17 -0.12 652.61 -0.14 C658.93 -0.14 665.25 -0.14 671.56 -0.13 C675.16 -0.12 678.75 -0.12 682.35 -0.13 C724.44 -0.26 724.44 -0.26 742.08 13.25 C743.07 13.58 744.06 13.91 745.08 14.25 C746.44 15.9 747.77 17.56 749.08 19.25 C749.74 19.58 750.4 19.91 751.08 20.25 C751.08 21.24 751.08 22.23 751.08 23.25 C751.74 23.25 752.4 23.25 753.08 23.25 C760.27 33.03 763.24 43.1 763.21 55.15 C763.21 55.93 763.21 56.71 763.21 57.52 C763.22 60.14 763.22 62.76 763.21 65.38 C763.22 67.28 763.22 69.18 763.22 71.07 C763.23 76.29 763.23 81.51 763.23 86.72 C763.23 92.34 763.23 97.97 763.24 103.59 C763.24 114.61 763.25 125.63 763.25 136.65 C763.25 145.6 763.25 154.56 763.25 163.51 C763.26 184.76 763.27 206.01 763.27 227.26 C763.27 227.94 763.27 228.62 763.27 229.32 C763.27 232.76 763.27 236.21 763.27 239.65 C763.27 240.68 763.27 240.68 763.27 241.72 C763.27 243.11 763.27 244.49 763.27 245.87 C763.27 267.4 763.27 288.92 763.29 310.44 C763.3 334.63 763.31 358.81 763.31 382.99 C763.31 395.79 763.31 408.6 763.32 421.4 C763.33 432.3 763.33 443.2 763.33 454.1 C763.32 459.66 763.32 465.22 763.33 470.79 C763.34 475.88 763.34 480.97 763.33 486.06 C763.33 487.9 763.33 489.75 763.34 491.59 C763.34 494.09 763.34 496.6 763.33 499.1 C763.33 499.82 763.34 500.53 763.34 501.27 C763.25 514.94 757.2 525.49 748.19 535.31 C736.01 547.21 719.25 552.74 702.56 552.62 C701.33 552.63 700.1 552.63 698.83 552.64 C695.42 552.64 692.01 552.64 688.6 552.62 C684.89 552.62 681.18 552.62 677.47 552.63 C670.96 552.64 664.46 552.63 657.96 552.62 C648.29 552.61 638.62 552.61 628.95 552.61 C612.69 552.62 596.42 552.61 580.16 552.6 C564.05 552.59 547.95 552.58 531.84 552.58 C530.84 552.58 529.84 552.58 528.81 552.58 C524.74 552.58 520.68 552.57 516.61 552.57 C479.57 552.57 442.53 552.56 405.48 552.53 C370.49 552.51 335.5 552.5 300.51 552.49 C298.89 552.49 298.89 552.49 297.24 552.49 C292.89 552.49 288.54 552.49 284.19 552.49 C282.02 552.49 279.86 552.49 277.69 552.49 C275.53 552.49 273.37 552.49 271.21 552.49 C236.83 552.49 202.45 552.47 168.07 552.46 C157.99 552.46 147.92 552.45 137.85 552.45 C116.66 552.45 95.48 552.44 74.3 552.42 C65.53 552.42 56.77 552.41 48.01 552.41 C40.75 552.41 33.49 552.41 26.23 552.4 C22.57 552.39 18.91 552.39 15.25 552.39 C11.32 552.4 7.4 552.39 3.47 552.38 C2.31 552.39 1.16 552.39 -0.03 552.39 C-1.07 552.39 -2.1 552.38 -3.17 552.38 C-4.52 552.38 -4.52 552.38 -5.9 552.38 C-7.92 552.25 -7.92 552.25 -8.92 551.25 C-9.02 548.18 -9.06 545.14 -9.05 542.07 C-9.05 541.1 -9.05 540.14 -9.05 539.14 C-9.06 535.94 -9.06 532.74 -9.05 529.53 C-9.05 527.32 -9.05 525.1 -9.06 522.89 C-9.06 518.24 -9.05 513.58 -9.05 508.93 C-9.04 502.96 -9.05 496.98 -9.05 491.01 C-9.06 486.43 -9.06 481.85 -9.05 477.27 C-9.05 475.07 -9.05 472.87 -9.06 470.66 C-9.06 467.59 -9.05 464.51 -9.05 461.44 C-9.05 460.52 -9.05 459.6 -9.06 458.65 C-9.03 452.37 -9.03 452.37 -7.92 451.25 C-5 451.16 -2.1 451.13 0.82 451.14 C1.75 451.14 2.69 451.14 3.65 451.14 C6.68 451.14 9.71 451.15 12.74 451.15 C14.61 451.16 16.47 451.16 18.34 451.16 C25.27 451.16 32.21 451.18 39.14 451.19 C54.63 451.21 70.12 451.23 86.08 451.25 C86.08 412.97 86.08 374.69 86.08 335.25 C55.19 334.96 55.19 334.96 24.3 334.68 C18.34 334.62 18.34 334.62 15.55 334.6 C13.59 334.58 11.64 334.56 9.68 334.54 C6.73 334.52 3.78 334.49 0.82 334.46 C-0.05 334.45 -0.93 334.45 -1.83 334.44 C-7.81 334.37 -7.81 334.37 -8.92 333.25 C-9.02 331.92 -9.05 330.58 -9.05 329.25 C-9.05 328.38 -9.05 327.51 -9.05 326.62 C-9.05 325.65 -9.05 324.69 -9.05 323.69 C-9.05 322.17 -9.05 322.17 -9.05 320.61 C-9.06 317.17 -9.05 313.73 -9.05 310.29 C-9.05 307.83 -9.05 305.37 -9.05 302.92 C-9.06 296.9 -9.06 290.88 -9.05 284.86 C-9.05 279.93 -9.05 274.99 -9.05 270.06 C-9.05 269.36 -9.05 268.66 -9.05 267.93 C-9.05 266.5 -9.05 265.07 -9.05 263.64 C-9.06 250.16 -9.05 236.68 -9.05 223.2 C-9.04 211.8 -9.05 200.39 -9.05 188.99 C-9.1 73.32 -9.1 73.32 -8.62 31.17 C-8.6 28.98 -8.58 26.78 -8.57 24.59 C-8.54 20.73 -8.48 16.88 -8.43 13.02 C-8.42 11.93 -8.41 10.84 -8.41 9.71 C-8.39 8.74 -8.37 7.77 -8.35 6.77 C-8.34 5.93 -8.33 5.1 -8.32 4.24 C-8.19 3.59 -8.05 2.93 -7.92 2.25 C-4.66 0.08 -3.77 0 0 0 Z " fill="#E82824" transform="translate(472.9195496439934,316.7481510043144)"/>
<path d="M0 0 C1.1 -0 2.19 -0 3.32 -0 C4.53 -0 5.74 0 6.98 0.01 C8.25 0.01 9.52 0.01 10.83 0.01 C14.31 0.01 17.79 0.01 21.28 0.02 C24.92 0.03 28.55 0.03 32.19 0.03 C39.08 0.03 45.98 0.04 52.87 0.05 C60.71 0.06 68.56 0.06 76.4 0.07 C92.54 0.08 108.68 0.1 124.82 0.12 C126.16 2.8 125.95 4.84 125.96 7.84 C125.96 9.07 125.97 10.29 125.97 11.56 C125.98 12.93 125.98 14.3 125.98 15.67 C125.98 17.12 125.98 18.57 125.99 20.02 C126 24.01 126.01 28 126.01 32 C126.02 36.3 126.03 40.6 126.04 44.9 C126.06 52.36 126.07 59.82 126.08 67.27 C126.1 78.06 126.13 88.84 126.15 99.63 C126.2 117.13 126.24 134.63 126.27 152.12 C126.27 153.17 126.28 154.22 126.28 155.3 C126.3 163.81 126.31 172.31 126.33 180.81 C126.35 188.25 126.36 195.68 126.38 203.12 C126.38 204.16 126.38 205.21 126.38 206.29 C126.42 223.72 126.46 241.15 126.5 258.58 C126.53 269.35 126.55 280.11 126.57 290.87 C126.58 298.24 126.6 305.61 126.62 312.98 C126.63 317.24 126.64 321.49 126.64 325.75 C126.65 329.64 126.65 333.53 126.67 337.43 C126.67 338.84 126.67 340.25 126.67 341.67 C126.67 343.58 126.68 345.49 126.69 347.4 C126.69 348.99 126.69 348.99 126.69 350.62 C126.66 353.12 126.66 353.12 127.82 355.12 C128.97 355.13 130.12 355.14 131.31 355.15 C142.13 355.25 152.94 355.35 163.76 355.46 C169.32 355.51 174.88 355.57 180.44 355.62 C185.8 355.67 191.17 355.72 196.53 355.77 C198.58 355.79 200.63 355.81 202.68 355.83 C205.54 355.85 208.4 355.88 211.27 355.91 C212.12 355.92 212.98 355.93 213.86 355.93 C219.71 356.01 219.71 356.01 220.82 357.12 C220.92 359.33 220.94 361.54 220.94 363.75 C220.94 364.81 220.94 364.81 220.94 365.88 C220.94 368.17 220.93 370.46 220.92 372.75 C220.92 374.16 220.92 375.57 220.92 376.98 C220.91 382.21 220.9 387.45 220.89 392.68 C220.87 404.38 220.85 416.07 220.82 428.12 C189.47 428.12 158.12 428.12 125.82 428.12 C125.84 437.06 125.85 446 125.86 455.21 C125.87 461.57 125.87 467.94 125.87 474.3 C125.88 482.56 125.89 490.81 125.9 499.07 C125.91 505.6 125.92 512.13 125.92 518.67 C125.92 522.13 125.92 525.59 125.93 529.05 C125.94 532.91 125.94 536.77 125.94 540.62 C125.94 541.78 125.94 542.94 125.95 544.13 C125.95 545.17 125.95 546.22 125.94 547.29 C125.95 548.66 125.95 548.66 125.95 550.06 C125.82 552.12 125.82 552.12 124.82 553.12 C123.22 553.22 121.62 553.25 120.01 553.25 C118.97 553.25 117.93 553.25 116.85 553.26 C115.7 553.25 114.55 553.25 113.36 553.25 C112.15 553.25 110.95 553.25 109.7 553.25 C106.39 553.26 103.07 553.26 99.75 553.25 C96.28 553.25 92.82 553.25 89.35 553.26 C83.53 553.26 77.7 553.26 71.88 553.25 C65.14 553.25 58.4 553.25 51.66 553.25 C45.89 553.26 40.11 553.26 34.33 553.26 C30.88 553.25 27.42 553.25 23.97 553.26 C20.12 553.26 16.27 553.26 12.42 553.25 C11.27 553.25 10.12 553.25 8.93 553.26 C7.89 553.25 6.84 553.25 5.77 553.25 C4.85 553.25 3.94 553.25 3 553.25 C0.82 553.12 0.82 553.12 -1.18 552.12 C-1.51 511.53 -1.84 470.94 -2.18 429.12 C-32.26 429.03 -32.26 429.03 -62.95 428.94 C-75.62 428.9 -88.28 428.86 -100.95 428.81 C-107.6 428.79 -114.25 428.77 -120.9 428.75 C-122.15 428.74 -122.15 428.74 -123.42 428.74 C-136.89 428.7 -150.37 428.65 -163.84 428.62 C-177.66 428.58 -191.47 428.53 -205.29 428.48 C-213.82 428.45 -222.36 428.43 -230.89 428.41 C-236.73 428.39 -242.57 428.37 -248.42 428.35 C-251.79 428.33 -255.17 428.32 -258.55 428.32 C-262.2 428.31 -265.85 428.29 -269.5 428.28 C-270.58 428.28 -271.66 428.28 -272.77 428.28 C-274.23 428.27 -274.23 428.27 -275.71 428.26 C-276.98 428.25 -276.98 428.25 -278.27 428.25 C-280.18 428.12 -280.18 428.12 -281.18 427.12 C-281.32 424.16 -281.4 421.22 -281.43 418.26 C-281.45 417.33 -281.46 416.4 -281.48 415.44 C-281.6 406.83 -281.67 398.22 -281.72 389.61 C-281.76 383.83 -281.81 378.05 -281.91 372.26 C-282 366.67 -282.05 361.08 -282.07 355.49 C-282.08 353.36 -282.11 351.24 -282.16 349.11 C-282.54 330.37 -282.54 330.37 -276.78 323.92 C-275.28 322.62 -273.75 321.34 -272.18 320.12 C-270.66 318.32 -269.15 316.51 -267.68 314.68 C-266.93 313.76 -266.19 312.84 -265.42 311.9 C-264.68 310.98 -263.94 310.06 -263.18 309.12 C-258.4 303.24 -253.58 297.4 -248.68 291.62 C-244.63 286.85 -240.63 282.04 -236.68 277.19 C-228.87 267.61 -221.02 258.07 -213.01 248.65 C-209.45 244.46 -205.96 240.2 -202.49 235.93 C-199.91 232.8 -197.3 229.71 -194.68 226.62 C-190.62 221.85 -186.63 217.04 -182.68 212.19 C-175.14 202.94 -167.59 193.71 -159.8 184.68 C-155.91 180.17 -152.12 175.6 -148.42 170.93 C-140.57 161.1 -132.51 151.46 -124.3 141.94 C-120.84 137.93 -117.51 133.83 -114.23 129.67 C-111.32 126.06 -108.32 122.54 -105.31 119.01 C-102.4 115.57 -99.52 112.11 -96.68 108.62 C-93.39 104.58 -90.05 100.59 -86.68 96.62 C-82.63 91.85 -78.63 87.04 -74.68 82.19 C-66.87 72.61 -59.02 63.07 -51.01 53.65 C-47.45 49.46 -43.96 45.2 -40.49 40.94 C-37.9 37.78 -35.26 34.67 -32.61 31.56 C-29.43 27.81 -26.29 24.04 -23.24 20.18 C-19.84 15.9 -16.34 11.72 -12.8 7.56 C-12.28 6.94 -11.75 6.32 -11.21 5.68 C-7.35 1.16 -5.86 -0.01 0 0 Z " fill="#201F1F" transform="translate(316.1758117675781,317.87974548339844)"/>
<path d="M0 0 C1.08 -0 2.15 -0.01 3.26 -0.01 C4.45 -0.01 5.65 -0 6.87 -0 C8.13 -0 9.39 -0 10.69 -0.01 C14.19 -0.01 17.7 -0.01 21.2 -0 C24.98 -0 28.75 -0.01 32.53 -0.01 C39.93 -0.01 47.33 -0.01 54.73 -0.01 C60.75 -0.01 66.76 -0.01 72.77 -0.01 C73.62 -0.01 74.48 -0.01 75.36 -0.01 C77.09 -0.01 78.83 -0.01 80.56 -0.01 C96.85 -0.01 113.14 -0.01 129.42 -0 C143.41 0 157.4 0 171.39 -0 C187.62 -0.01 203.84 -0.01 220.07 -0.01 C221.8 -0.01 223.53 -0.01 225.26 -0.01 C226.11 -0.01 226.96 -0.01 227.84 -0.01 C233.84 -0.01 239.85 -0.01 245.86 -0.01 C253.18 -0.01 260.5 -0.01 267.81 -0.01 C271.55 -0 275.29 -0 279.02 -0.01 C283.06 -0.01 287.11 -0.01 291.15 -0 C292.94 -0 292.94 -0 294.77 -0.01 C295.84 -0.01 296.91 -0 298.02 0 C298.95 0 299.89 0 300.85 0 C302.95 0.13 302.95 0.13 303.95 1.13 C304.04 3.06 304.06 5 304.06 6.93 C304.06 8.19 304.06 9.45 304.06 10.74 C304.05 12.09 304.05 13.44 304.04 14.79 C304.04 16 304.04 17.22 304.04 18.48 C304.04 23.05 304.02 27.62 304.01 32.19 C303.99 42.4 303.97 52.61 303.95 63.13 C247.02 63.62 247.02 63.62 188.95 64.13 C188.95 159.83 188.95 255.53 188.95 354.13 C162.88 354.13 136.81 354.13 109.95 354.13 C108.33 352.51 108.82 350.76 108.81 348.53 C108.81 347.53 108.8 346.53 108.8 345.49 C108.8 343.83 108.8 343.83 108.8 342.12 C108.8 340.95 108.79 339.78 108.79 338.57 C108.78 335.31 108.78 332.04 108.78 328.78 C108.77 325.26 108.76 321.74 108.75 318.22 C108.74 312.13 108.73 306.03 108.72 299.93 C108.7 291.11 108.68 282.29 108.66 273.47 C108.62 259.16 108.59 244.85 108.55 230.54 C108.55 229.68 108.55 228.83 108.55 227.94 C108.52 215.77 108.5 203.61 108.47 191.44 C108.47 190.15 108.47 190.15 108.47 188.84 C108.47 187.99 108.47 187.13 108.46 186.25 C108.44 171.99 108.4 157.74 108.36 143.49 C108.34 134.69 108.32 125.88 108.31 117.08 C108.3 111.06 108.29 105.03 108.27 99 C108.26 95.52 108.25 92.04 108.25 88.56 C108.25 84.79 108.23 81.02 108.22 77.26 C108.22 76.15 108.22 75.03 108.23 73.89 C108.22 72.89 108.21 71.88 108.21 70.85 C108.2 69.98 108.2 69.11 108.2 68.21 C108.14 65.91 108.14 65.91 105.95 64.13 C103.88 63.82 103.88 63.82 101.46 63.85 C100.52 63.84 99.57 63.83 98.6 63.82 C97.56 63.82 96.52 63.82 95.45 63.82 C94.36 63.81 93.27 63.81 92.15 63.8 C88.53 63.77 84.91 63.76 81.29 63.75 C78.78 63.73 76.27 63.71 73.77 63.7 C67.84 63.65 61.91 63.62 55.98 63.59 C44.72 63.54 33.46 63.47 22.21 63.4 C18.5 63.37 14.79 63.36 11.08 63.34 C8.83 63.33 6.57 63.31 4.31 63.3 C3.27 63.3 2.23 63.29 1.16 63.29 C0.22 63.28 -0.73 63.28 -1.69 63.27 C-2.52 63.27 -3.34 63.26 -4.19 63.26 C-6.05 63.13 -6.05 63.13 -7.05 62.13 C-7.15 60.22 -7.17 58.32 -7.17 56.41 C-7.17 55.19 -7.17 53.97 -7.17 52.71 C-7.16 51.37 -7.16 50.03 -7.15 48.68 C-7.15 47.32 -7.15 45.95 -7.15 44.59 C-7.14 40.98 -7.13 37.38 -7.12 33.78 C-7.11 30.11 -7.11 26.43 -7.1 22.76 C-7.09 15.55 -7.07 8.34 -7.05 1.13 C-4.54 -0.13 -2.82 0 0 0 Z " fill="#D8D9DA" transform="translate(773.0534524917603,416.87415885925293)"/>
<path d="M0 0 C10.41 -0.02 20.83 -0.04 31.24 -0.05 C36.08 -0.06 40.91 -0.06 45.74 -0.08 C50.41 -0.09 55.07 -0.09 59.73 -0.09 C61.51 -0.1 63.3 -0.1 65.08 -0.11 C67.57 -0.11 70.05 -0.11 72.54 -0.11 C73.29 -0.12 74.03 -0.12 74.8 -0.12 C79.89 -0.11 79.89 -0.11 81 1 C81.1 2.87 81.12 4.75 81.12 6.62 C81.13 7.85 81.13 9.08 81.13 10.34 C81.13 11.72 81.12 13.1 81.12 14.48 C81.12 15.94 81.12 17.39 81.12 18.84 C81.13 22.85 81.12 26.86 81.12 30.88 C81.11 35.19 81.11 39.51 81.11 43.83 C81.11 51.32 81.11 58.81 81.11 66.29 C81.1 77.12 81.1 87.95 81.09 98.77 C81.09 116.34 81.08 133.9 81.08 151.47 C81.07 168.53 81.06 185.6 81.05 202.66 C81.05 203.72 81.05 204.77 81.05 205.85 C81.05 211.12 81.05 216.4 81.05 221.67 C81.04 265.45 81.02 309.22 81 353 C70.6 353.05 60.21 353.08 49.81 353.1 C44.98 353.11 40.16 353.13 35.33 353.15 C30.68 353.17 26.02 353.18 21.36 353.19 C19.59 353.19 17.81 353.2 16.03 353.21 C13.54 353.23 11.06 353.23 8.57 353.23 C7.83 353.23 7.09 353.24 6.33 353.25 C1.23 353.23 1.23 353.23 -1 351 C-1.25 348.52 -1.25 348.52 -1.25 345.33 C-1.25 344.11 -1.26 342.9 -1.26 341.65 C-1.26 340.29 -1.25 338.93 -1.25 337.57 C-1.25 336.13 -1.25 334.7 -1.25 333.26 C-1.26 329.31 -1.25 325.35 -1.25 321.39 C-1.24 317.13 -1.25 312.87 -1.25 308.6 C-1.25 300.25 -1.25 291.89 -1.24 283.54 C-1.23 273.81 -1.23 264.09 -1.23 254.37 C-1.23 237.02 -1.22 219.68 -1.21 202.33 C-1.19 185.49 -1.18 168.64 -1.19 151.8 C-1.19 150.76 -1.19 149.72 -1.19 148.65 C-1.19 147.62 -1.19 146.58 -1.19 145.52 C-1.19 126.36 -1.18 107.21 -1.17 88.05 C-1.17 81.27 -1.17 74.49 -1.17 67.7 C-1.17 59.44 -1.16 51.18 -1.15 42.91 C-1.15 38.7 -1.14 34.48 -1.15 30.26 C-1.15 26.4 -1.14 22.54 -1.14 18.68 C-1.13 17.28 -1.13 15.88 -1.14 14.48 C-1.14 12.59 -1.13 10.69 -1.13 8.8 C-1.13 7.74 -1.13 6.69 -1.13 5.6 C-1 3 -1 3 0 0 Z " fill="#D8D9DA" transform="translate(644,418)"/>
<path d="M0 0 C0.99 0.5 0.99 0.5 2 1 C1.86 4.67 1.71 8.33 1.56 12 C1.52 13.03 1.48 14.06 1.44 15.12 C1.4 16.13 1.36 17.14 1.32 18.19 C1.26 19.57 1.26 19.57 1.21 20.98 C1 24 1 24 0.52 27.37 C-0.22 33.27 -0.36 39.2 -0.54 45.15 C-0.57 45.81 -0.59 46.46 -0.61 47.14 C-1.21 66.58 -1.21 86.04 -1.27 105.49 C-1.29 110.87 -1.31 116.24 -1.34 121.62 C-1.41 137.53 -1.47 153.44 -1.53 169.34 C-1.57 181.8 -1.62 194.25 -1.68 206.71 C-1.71 213.09 -1.73 219.48 -1.75 225.87 C-1.76 229.82 -1.78 233.76 -1.8 237.71 C-1.81 239.54 -1.81 241.38 -1.82 243.21 C-1.82 245.7 -1.83 248.19 -1.85 250.69 C-1.85 251.42 -1.85 252.15 -1.85 252.91 C-1.89 257.89 -1.89 257.89 -3 259 C-5.71 259.1 -8.39 259.13 -11.09 259.12 C-11.95 259.12 -12.81 259.12 -13.69 259.12 C-16.59 259.12 -19.49 259.12 -22.39 259.11 C-24.46 259.11 -26.53 259.11 -28.6 259.11 C-34.23 259.11 -39.87 259.11 -45.51 259.1 C-51.39 259.1 -57.27 259.09 -63.16 259.09 C-74.3 259.09 -85.45 259.08 -96.6 259.07 C-109.29 259.06 -121.98 259.06 -134.67 259.05 C-160.78 259.04 -186.89 259.02 -213 259 C-211.76 255.78 -210.67 253.29 -208.35 250.72 C-207.82 250.13 -207.3 249.54 -206.76 248.94 C-206.2 248.32 -205.64 247.7 -205.06 247.06 C-200.6 242.04 -196.29 236.95 -192.19 231.62 C-188.58 226.96 -184.84 222.49 -180.88 218.12 C-178.94 215.93 -177.12 213.67 -175.31 211.38 C-171.83 206.97 -168.19 202.73 -164.5 198.5 C-160.22 193.6 -156.05 188.64 -152.02 183.52 C-149.57 180.47 -147.04 177.48 -144.5 174.5 C-141.29 170.73 -138.13 166.95 -135.06 163.06 C-131.33 158.35 -127.42 153.8 -123.49 149.24 C-119.68 144.81 -115.96 140.31 -112.27 135.77 C-109.76 132.71 -107.19 129.7 -104.62 126.69 C-100.74 122.13 -96.99 117.48 -93.31 112.75 C-89.68 108.07 -85.93 103.58 -81.95 99.19 C-79 95.87 -76.22 92.41 -73.42 88.96 C-70.8 85.75 -68.12 82.59 -65.44 79.44 C-62.25 75.69 -59.11 71.92 -56.06 68.06 C-52.31 63.32 -48.37 58.75 -44.42 54.17 C-41.55 50.83 -38.73 47.46 -36 44 C-32.77 39.91 -29.41 35.95 -26 32 C-21.2 26.43 -16.56 20.77 -12 15 C-9.84 12.29 -7.67 9.58 -5.5 6.88 C-4.45 5.56 -3.4 4.24 -2.34 2.93 C-1.57 1.96 -0.8 1 0 0 Z " fill="#D8D9DA" transform="translate(326,417)"/>
<path d="M0 0 C101.64 0 203.28 0 308 0 C308.33 0.99 308.66 1.98 309 3 C206.7 3 104.4 3 -1 3 C-0.67 2.01 -0.34 1.02 0 0 Z " fill="#E4C2C1" transform="translate(768,417)"/>
</svg>
